<?xml version="1.0" encoding="utf-8"?>
<!-- Generator: Adobe Illustrator 16.0.3, SVG Export Plug-In . SVG Version: 6.00 Build 0)  -->
<!DOCTYPE svg PUBLIC "-//W3C//DTD SVG 1.1//EN" "http://www.w3.org/Graphics/SVG/1.1/DTD/svg11.dtd">
<svg version="1.1" id="Capa_1" xmlns="http://www.w3.org/2000/svg" xmlns:xlink="http://www.w3.org/1999/xlink" x="0px" y="0px"
	 width="400px" height="120px" viewBox="0 0 400 120" enable-background="new 0 0 400 120" xml:space="preserve">
<g>
	<title>background</title>
	<rect id="canvas_background" x="-1" y="-1" fill="none" width="402" height="122"/>
</g>
<g>
	
		<linearGradient id="svg_28_1_" gradientUnits="userSpaceOnUse" x1="-96.2002" y1="475.1816" x2="-95.2002" y2="475.1816" gradientTransform="matrix(75 0 0 -75 7216.9375 35716.625)">
		<stop  offset="0" style="stop-color:#F8FF94"/>
		<stop  offset="0.7317" style="stop-color:#070101"/>
		<stop  offset="1" style="stop-color:#000000"/>
	</linearGradient>
	<path id="svg_28" fill="url(#svg_28_1_)" d="M1.9,78c0-20.7,16.8-37.5,37.5-37.5c20.7,0,37.5,16.8,37.5,37.5s-16.8,37.5-37.5,37.5
		C18.7,115.5,1.9,98.7,1.9,78z"/>
	<title>Layer 1</title>
	<path id="svg_1" fill="#FFFFFF" d="M16.5,8.5c0.3,0.1,0.4,0.5,0.2,0.8c-0.1,0.1-0.1,0.2-0.2,0.2l-11.4,7c-0.5,0.3-0.8,0.1-0.8-0.5
		V2c0-0.5,0.4-0.8,0.8-0.5L16.5,8.5z"/>
	<path id="svg_2" fill="#FFFFFF" d="M26.2,1H24c-0.6,0-1,0.5-1,1v14c0,0.6,0.4,1,1,1h2.2c0.6,0,1-0.4,1-1V2C27.2,1.4,26.8,1,26.2,1z
		"/>
	<path id="svg_3" fill="none" d="M35.6,16.8c-0.9,0.3-2.2-0.2-2.8-1V16c0,0.6,0.4,1,1,1H36c0.6,0,1-0.4,1-1v-0.3
		C36.7,16.2,36.3,16.6,35.6,16.8z"/>
	
		<linearGradient id="svg_4_1_" gradientUnits="userSpaceOnUse" x1="-92.0249" y1="459.6992" x2="-91.0249" y2="459.6992" gradientTransform="matrix(17.8 0 0 -17.8 1719.0369 8191.9624)">
		<stop  offset="0" style="stop-color:#FFFFFF"/>
		<stop  offset="0.0222" style="stop-color:#FEFFEA"/>
		<stop  offset="0.0577" style="stop-color:#FDFFCF"/>
		<stop  offset="0.0984" style="stop-color:#FCFFB9"/>
		<stop  offset="0.1459" style="stop-color:#FCFFA8"/>
		<stop  offset="0.2047" style="stop-color:#FBFF9D"/>
		<stop  offset="0.2872" style="stop-color:#FBFF96"/>
		<stop  offset="0.5163" style="stop-color:#FBFF94"/>
		<stop  offset="0.7309" style="stop-color:#FBFF96"/>
		<stop  offset="0.8082" style="stop-color:#FBFF9D"/>
		<stop  offset="0.8633" style="stop-color:#FCFFA8"/>
		<stop  offset="0.9078" style="stop-color:#FCFFB9"/>
		<stop  offset="0.946" style="stop-color:#FDFFCF"/>
		<stop  offset="0.9792" style="stop-color:#FEFFEA"/>
		<stop  offset="1" style="stop-color:#FFFFFF"/>
	</linearGradient>
	<path id="svg_4" fill="url(#svg_4_1_)" d="M81,1.4c0-0.6,0.4-1,1-1h5.4c0.6,0,0.7,0.3,0.3,0.7l-6,6C81.3,7.5,81,7.4,81,6.8V1.4z
		 M81,17.2c0,0.6,0.4,1,1,1h5.4c0.6,0,0.7-0.3,0.3-0.7l-6-6c-0.4-0.4-0.7-0.3-0.7,0.3V17.2z M98.8,1.4c0-0.6-0.4-1-1-1h-5.4
		c-0.6,0-0.7,0.3-0.3,0.7l6,6c0.4,0.4,0.7,0.3,0.7-0.3V1.4z M98.8,17.2c0,0.6-0.4,1-1,1h-5.4c-0.6,0-0.7-0.3-0.3-0.7l6-6
		c0.4-0.4,0.7-0.3,0.7,0.3V17.2z"/>
	<path id="svg_5" fill="#EFFF8F" d="M112.7,5c0,0.6,0.4,1,1,1h4.1c0.6,0,0.7-0.3,0.3-0.7l-4.7-4.7c-0.4-0.4-0.7-0.3-0.7,0.3V5z
		 M105.6,6c0.6,0,1-0.4,1-1V0.9c0-0.6-0.3-0.7-0.7-0.3l-4.7,4.7c-0.4,0.4-0.3,0.7,0.3,0.7H105.6z M106.6,13.1c0-0.6-0.4-1-1-1h-4.1
		c-0.6,0-0.7,0.3-0.3,0.7l4.7,4.7c0.4,0.4,0.7,0.3,0.7-0.3V13.1z M113.7,12.1c-0.6,0-1,0.4-1,1v4.1c0,0.5,0.3,0.7,0.7,0.3l4.7-4.7
		c0.4-0.4,0.3-0.7-0.3-0.7H113.7z"/>
	<path id="svg_6" fill="#E2F980" d="M67,5.8c-0.5,0.4-1.2,0.6-1.8,0.6H62c-0.6,0-1,0.4-1,1v5.7c0,0.6,0.4,1,1,1h4.2
		c0.3,0.2,0.5,0.4,0.8,0.6l3.5,2.6c0.4,0.3,0.8,0.1,0.8-0.4V3.5c0-0.5-0.4-0.7-0.8-0.4L67,5.8z"/>
	<path id="svg_7" fill="none" stroke="#FFFFFF" stroke-miterlimit="10" d="M73.9,2.5c0,0,3.9-0.8,3.9,7.7S73.9,18,73.9,18"/>
	<path id="svg_8" fill="none" stroke="#FFFFFF" stroke-miterlimit="10" d="M72.6,6.4c0,0,2.6-0.4,2.6,3.8c0,4.2-2.6,3.9-2.6,3.9"/>
	<path id="svg_9" fill="#ECF784" d="M47,5.8c-0.5,0.4-1.2,0.6-1.8,0.6H42c-0.6,0-1,0.4-1,1v5.7c0,0.6,0.4,1,1,1h4.2
		c0.3,0.2,0.5,0.4,0.8,0.6l3.5,2.6c0.4,0.3,0.8,0.1,0.8-0.4V3.5c0-0.5-0.4-0.7-0.8-0.4L47,5.8z"/>
	<linearGradient id="svg_10_1_" gradientUnits="userSpaceOnUse" x1="52.7998" y1="9.7002" x2="58.2002" y2="9.7002">
		<stop  offset="0" style="stop-color:#FFFFFF"/>
		<stop  offset="1" style="stop-color:#000000"/>
	</linearGradient>
	<path id="svg_10" fill="url(#svg_10_1_)" stroke="#FFFFFF" stroke-width="2" stroke-linecap="round" d="M52.8,7l5.4,5.4 M52.8,12.4
		L58.2,7"/>
	<path id="svg_11" fill="none" stroke="#DEF48E" d="M128.7,8.6c-6.2-4.2-6.5,7.8,0,3.9 M135.2,8.6c-6.2-4.2-6.5,7.8,0,3.9"/>
	<path id="svg_12" fill="#DCEA8B" d="M122.2,3.4h15.7v13.1h-15.7V3.4z M120.8,2v15.7h18.3V2H120.8z"/>
	<path id="svg_13" fill="#EFE68F" d="M143.2,3h14c1.1,0,2,0.9,2,2v10c0,1.1-0.9,2-2,2h-14c-1.1,0-2-0.9-2-2V5
		C141.2,3.9,142.1,3,143.2,3z"/>
	<path id="svg_14" fill="#FFFFFF" d="M146.4,13.8c-0.8,0-1.6-0.4-2.1-1c-1.1-1.4-1-3.4,0.1-4.8c0.5-0.6,2-1.7,4.6,0.2L148.4,9
		c-1.4-1-2.6-1.1-3.3-0.3c-0.8,1-0.8,2.4-0.1,3.5c0.7,0.9,1.9,0.8,3.4-0.1l0.5,0.9C148.2,13.5,147.3,13.7,146.4,13.8L146.4,13.8
		L146.4,13.8L146.4,13.8z M153.9,13.8c-0.8,0-1.6-0.4-2.1-1c-1.1-1.4-1-3.4,0.1-4.8c0.5-0.6,2-1.7,4.6,0.2L156,9
		c-1.4-1-2.6-1.1-3.3-0.3c-0.8,1-0.8,2.4-0.1,3.5c0.7,0.9,1.9,0.8,3.4-0.1l0.5,0.9C155.7,13.5,154.8,13.7,153.9,13.8L153.9,13.8
		L153.9,13.8L153.9,13.8z"/>
	<path id="svg_15" fill="#FCFCFC" d="M60.3,77c0.6,0.2,0.8,0.8,0.6,1.4c-0.1,0.3-0.3,0.5-0.6,0.6L30,96.5c-1,0.6-1.7,0.1-1.7-1v-35
		c0-1.1,0.8-1.5,1.7-1L60.3,77z"/>
	<path id="svg_16" d="M82.5,79c0-20.7,16.8-37.5,37.5-37.5s37.5,16.8,37.5,37.5s-16.8,37.5-37.5,37.5S82.5,99.7,82.5,79z"/>
	<circle id="svg_17" fill="#FCFC86" cx="201.9" cy="47.1" r="8.1"/>
	<circle id="svg_18" opacity="0.4" fill="#FCFC86" enable-background="new    " cx="233.9" cy="79" r="5"/>
	<circle id="svg_19" opacity="0.6" fill="#FCFC86" enable-background="new    " cx="201.9" cy="110.9" r="6"/>
	<circle id="svg_20" opacity="0.8" fill="#FCFC86" enable-background="new    " cx="170.1" cy="79" r="7"/>
	<circle id="svg_21" opacity="0.9" fill="#FCFC86" enable-background="new    " cx="178.2" cy="56.3" r="7.5"/>
	<circle id="svg_22" opacity="0.3" fill="#FCFC86" enable-background="new    " cx="226.3" cy="56.1" r="4.5"/>
	<circle id="svg_23" opacity="0.5" fill="#FCFC86" enable-background="new    " cx="225.8" cy="102.8" r="5.5"/>
	<circle id="svg_24" opacity="0.7" fill="#FCFC86" enable-background="new    " cx="178.2" cy="102.8" r="6.5"/>
	<path id="svg_25" fill="#E8F794" d="M169.4,15.9c-1,0-2-0.2-2.9-0.7c-2-1-3.2-3-3.2-5.2c0.1-3.4,2.9-6,6.3-6
		c2.5,0.1,4.8,1.7,5.6,4.1l0.1-0.1l2.1,1.1c-0.6-4.4-4.7-7.5-9.1-6.9c-3.9,0.6-6.9,3.9-7,7.9c0,2.9,1.7,5.6,4.3,7
		c1.2,0.6,2.5,0.9,3.8,1c2.6,0,5-1.2,6.6-3.3l-1.8-0.9C173,15.1,171.2,15.9,169.4,15.9L169.4,15.9L169.4,15.9L169.4,15.9z"/>
	
		<linearGradient id="svg_26_1_" gradientUnits="userSpaceOnUse" x1="-91.6284" y1="452.2041" x2="-90.6284" y2="452.2041" gradientTransform="matrix(16.6 0 0 -13 1702.9409 5888.3516)">
		<stop  offset="0.3463" style="stop-color:#A01010"/>
		<stop  offset="0.8829" style="stop-color:#000000"/>
	</linearGradient>
	<path id="svg_26" fill="url(#svg_26_1_)" d="M183.4,3.2c0.8,0,1.5,0.7,1.5,1.5c0,0.8-0.7,1.5-1.5,1.5c-0.8,0-1.5-0.7-1.5-1.5
		C181.9,3.8,182.6,3.2,183.4,3.2z M188.5,3.2h8.5c0.9,0,1.5,0.7,1.5,1.5c0,0.8-0.7,1.5-1.5,1.5h-8.5c-0.9,0-1.5-0.7-1.5-1.5
		C186.9,3.8,187.6,3.2,188.5,3.2z M183.4,8.2c0.8,0,1.5,0.7,1.5,1.5c0,0.8-0.7,1.5-1.5,1.5c-0.8,0-1.5-0.7-1.5-1.5
		C181.9,8.8,182.6,8.2,183.4,8.2z M188.5,8.2h8.5c0.9,0,1.5,0.7,1.5,1.5c0,0.8-0.7,1.5-1.5,1.5h-8.5c-0.9,0-1.5-0.7-1.5-1.5
		C186.9,8.8,187.6,8.2,188.5,8.2z M183.4,13.2c0.8,0,1.5,0.7,1.5,1.5c0,0.8-0.7,1.5-1.5,1.5c-0.8,0-1.5-0.7-1.5-1.5
		C181.9,13.8,182.6,13.2,183.4,13.2z M188.5,13.2h8.5c0.9,0,1.5,0.7,1.5,1.5c0,0.8-0.7,1.5-1.5,1.5h-8.5c-0.9,0-1.5-0.7-1.5-1.5
		C186.9,13.8,187.6,13.2,188.5,13.2z"/>
	
		<linearGradient id="svg_27_1_" gradientUnits="userSpaceOnUse" x1="-94.5171" y1="470.3574" x2="-93.5171" y2="470.3574" gradientTransform="matrix(32.675 0 0 -37.4695 3197.3494 17701.5293)">
		<stop  offset="0" style="stop-color:#F0FF7F"/>
		<stop  offset="1" style="stop-color:#000000"/>
	</linearGradient>
	<path id="svg_27" fill="url(#svg_27_1_)" d="M141,76.5c0.6,0.2,0.8,0.8,0.6,1.4c-0.1,0.3-0.3,0.5-0.6,0.6L110.7,96
		c-1,0.6-1.7,0.1-1.7-1V60c0-1.1,0.8-1.5,1.7-1L141,76.5z"/>
	<path id="svg_29" fill="#FFFFFF" d="M36,1h-2.2c-0.6,0-1,0.5-1,1v14c0,0.6,0.4,1,1,1H36c0.6,0,1-0.4,1-1V2C37,1.4,36.6,1,36,1z"/>
	<path id="svg_30" fill="#E8F794" d="M178,9.4c0,0.4-0.4,0.7-0.9,0.7c-0.1,0-0.2,0-0.2-0.1L172,8.2c-0.5-0.2-0.6-0.6-0.1-0.8
		l6.2-3.6c0.5-0.3,0.8-0.1,0.7,0.5L178,9.4L178,9.4z"/>
</g>
</svg>
